PathFileType	4	(X/Y/Z)	S1_nor_slow_left.trc
DataRate	CameraRate	NumFrames	NumMarkers	Units	OrigDataRate	OrigDataStartFrame	OrigNumFrames
250.00	250.00	16	18	mm	250.00	7702	12323
Frame#	Time	c7	r_should	l_should	clavicle	r_upa	r_elb_l	r_elb_m	r_low	r_wri_l	r_wri_m	r_met	l_upa	l_elb_l	l_elb_m	l_low	l_wri_l	l_wri_m	l_met
	X1	Y1	Z1	X2	Y2	Z2	X3	Y3	Z3	X4	Y4	Z4	X5	Y5	Z5	X6	Y6	Z6	X7	Y7	Z7	X8	Y8	Z8	X9	Y9	Z9	X10	Y10	Z10	X11	Y11	Z11	X12	Y12	Z12	X13	Y13	Z13	X14	Y14	Z14	X15	Y15	Z15	X16	Y16	Z16	X17	Y17	Z17	X18	Y18	Z18
7702	30.80400	859.26599	1421.15735	81.51940	939.29852	1356.89026	262.46280	892.58124	1347.78113	-109.83942	992.97925	1296.78943	64.77778	920.79633	1161.86084	339.28812	936.21112	1063.78235	354.91666	858.17773	1037.82263	295.34637	919.70612	932.34485	374.19308	1012.78723	865.98340	332.16959	950.28003	835.36713	354.03525	1065.49963	792.61353	343.07010	899.30359	1127.92468	-136.63414	907.22253	1077.77087	-143.85666	893.21442	1029.25049	-54.11039	1025.33862	1048.86987	-108.21960	nan	nan	nan	nan	nan	nan	1157.40918	1144.47876	-146.03644
7703	30.80800	859.26440	1421.15808	81.47568	939.32288	1356.89929	262.40170	892.55579	1347.75281	-109.88400	992.99518	1296.80823	64.72314	920.85754	1161.88025	339.24838	936.27130	1063.79309	354.86212	858.24927	1037.83179	295.30411	919.79120	932.35663	374.14105	1012.87653	866.00781	332.12253	950.37482	835.38336	353.99182	1065.59790	792.64783	343.02637	899.58392	1127.97620	-136.72568	907.55817	1077.89368	-143.89738	893.59760	1029.29395	-54.13172	1025.67517	1049.75415	-108.15133	nan	nan	nan	nan	nan	nan	1156.91040	1146.25000	-145.91092
7704	30.81200	859.26227	1421.15308	81.43124	939.34631	1356.90955	262.33795	892.52625	1347.72681	-109.92619	993.01038	1296.81885	64.67559	920.91223	1161.89319	339.20120	936.32935	1063.80896	354.81100	858.31659	1037.83191	295.25082	919.88361	932.37231	374.07941	1012.96869	866.03900	332.07108	950.46936	835.40338	353.94641	1065.70007	792.68817	342.98605	899.86426	1128.02063	-136.82225	907.87372	1078.03857	-144.00125	894.01868	1029.33411	-54.13736	1026.00867	1050.66089	-108.07574	nan	nan	nan	nan	nan	nan	1156.97961	1148.04126	-145.33029
7705	30.81600	859.25848	1421.14563	81.38583	939.35992	1356.91577	262.27768	892.49786	1347.69678	-109.96419	993.02942	1296.83252	64.62939	920.95398	1161.90186	339.14630	936.39062	1063.82764	354.75903	858.38245	1037.83057	295.19916	919.97742	932.38690	374.02063	1013.06488	866.07355	332.01886	950.56836	835.42297	353.89792	1065.81055	792.72589	342.93567	900.15247	1128.06384	-136.91742	908.21191	1078.18958	-144.13899	894.46716	1029.36475	-54.13022	1026.33984	1051.55347	-108.00063	nan	nan	nan	nan	nan	nan	1156.77942	1149.87048	-144.96773
7706	30.82000	859.24866	1421.13318	81.33495	939.36884	1356.92212	262.22260	892.46912	1347.67029	-110.01257	993.04797	1296.85376	64.58872	920.99847	1161.92371	339.10355	936.45044	1063.85034	354.70587	858.44977	1037.83154	295.14862	920.03900	932.36792	373.96829	1013.15857	866.10675	331.96329	950.66962	835.44403	353.85120	1065.92468	792.76135	342.87939	900.43665	1128.11035	-137.01677	908.56799	1078.33777	-144.27335	894.99451	1029.41040	-54.08062	1026.66846	1052.43823	-107.92099	nan	nan	nan	nan	nan	nan	1156.27649	1151.62305	-144.89455
7707	30.82400	859.23395	1421.11804	81.27409	939.37195	1356.93579	262.15363	892.43915	1347.64087	-110.06085	993.06647	1296.86914	64.54893	921.04114	1161.93591	339.06769	936.50330	1063.86621	354.66391	858.51349	1037.83386	295.10236	920.06482	932.30438	373.91943	1013.25299	866.14117	331.91046	950.77478	835.46497	353.80164	1066.03906	792.80627	342.81241	900.71887	1128.15503	-137.11331	908.91791	1078.47290	-144.40884	895.47784	1029.45203	-54.06236	1026.98730	1053.32178	-107.84581	nan	nan	nan	nan	nan	nan	1155.60486	1153.29871	-144.85072
7708	30.82800	859.23163	1421.11609	81.22833	939.36914	1356.95081	262.09799	892.40955	1347.60950	-110.10595	993.07874	1296.87354	64.49381	921.19733	1161.82104	339.08563	936.56281	1063.88525	354.60086	858.57092	1037.83789	295.05713	920.13690	932.29578	373.86823	1013.34784	866.17566	331.85757	950.88690	835.48999	353.75327	1066.15955	792.85510	342.74551	901.00787	1128.19556	-137.20297	909.26715	1078.61072	-144.55154	895.87396	1029.48083	-54.09366	1027.29419	1054.20093	-107.75845	nan	nan	nan	nan	nan	nan	1155.50488	1155.09338	-144.25899
7709	30.83200	859.21930	1421.10278	81.17746	939.37048	1356.96265	262.04211	892.37988	1347.57837	-110.14982	993.08405	1296.88367	64.42890	921.49316	1161.56458	339.17938	936.62122	1063.89795	354.53973	858.63214	1037.83813	295.01813	920.22168	932.30621	373.82553	1013.44440	866.21869	331.80820	951.00439	835.51392	353.70126	1066.28333	792.90393	342.67487	901.30011	1128.24133	-137.29779	909.61469	1078.75110	-144.67221	896.28156	1029.49829	-54.12507	1027.61597	1055.09863	-107.68207	nan	nan	nan	nan	nan	nan	1155.38013	1157.13525	-144.09045
7710	30.83600	859.19501	1421.08582	81.10402	939.36084	1356.97461	261.98172	892.34998	1347.55286	-110.19122	993.09442	1296.89832	64.37997	921.47125	1161.63159	339.10983	936.67889	1063.91138	354.49390	858.68890	1037.83984	294.98083	920.30988	932.31903	373.78207	1013.54541	866.26093	331.75742	951.12445	835.53564	353.65302	1066.40649	792.95978	342.60974	901.60248	1128.28503	-137.38503	909.95483	1078.89270	-144.79666	896.64764	1029.49768	-54.14218	1027.93945	1055.98083	-107.61161	nan	nan	nan	nan	nan	nan	1155.32507	1159.50061	-144.12825
7711	30.84000	859.17700	1421.07715	81.04661	939.34607	1356.98962	261.92514	892.32092	1347.52771	-110.23468	993.10938	1296.91968	64.33811	921.36072	1161.77490	338.99899	936.72620	1063.92639	354.44818	858.74243	1037.83923	294.93951	920.39807	932.33344	373.73807	1013.64709	866.30829	331.70770	951.24518	835.55798	353.60550	1066.52795	793.01788	342.53885	901.90863	1128.33337	-137.47234	910.31097	1079.04089	-144.91003	897.09454	1029.51489	-54.11982	1028.25977	1056.86267	-107.55296	nan	nan	nan	nan	nan	nan	1155.08447	1161.50867	-143.95200
7712	30.84400	859.16473	1421.06873	80.99493	939.32593	1357.01392	261.86636	892.28973	1347.50391	-110.27924	993.12231	1296.93726	64.29803	921.58130	1161.58325	339.06241	936.77905	1063.94910	354.40128	858.80072	1037.84351	294.89874	920.48279	932.35046	373.69702	1013.74829	866.36163	331.65723	951.36121	835.58459	353.55768	1066.65283	793.07568	342.47702	902.22174	1128.38110	-137.55110	910.68817	1079.19055	-145.01990	897.55811	1029.58179	-54.10550	1028.55884	1057.74902	-107.48328	nan	nan	nan	1108.82983	1108.78271	-67.93243	1149.99658	1162.14148	-146.27075
7713	30.84800	859.15027	1421.06555	80.93826	939.30963	1357.02527	261.81360	892.26556	1347.47791	-110.32404	993.13232	1296.95532	64.25166	921.53778	1161.67603	338.98840	936.82874	1063.96753	354.35837	858.85571	1037.85278	294.86395	920.57111	932.36890	373.64932	1013.85785	866.41205	331.60825	951.48016	835.61469	353.50494	1066.78247	793.13696	342.40823	902.53625	1128.43152	-137.62535	911.07465	1079.34534	-145.13585	898.02313	1029.66516	-54.10266	1028.85242	1058.62561	-107.40960	nan	nan	nan	1108.65381	1110.13940	-67.72906	1143.79980	1162.31482	-149.29227
7714	30.85200	859.13531	1421.06421	80.88834	939.29218	1357.03809	261.76166	892.24579	1347.45093	-110.35974	993.14465	1296.97925	64.21309	921.43127	1161.82898	338.87277	936.87799	1063.98486	354.31754	858.90900	1037.84937	294.82758	920.68872	932.41565	373.60043	1013.97369	866.46106	331.55612	951.60388	835.64557	353.45261	1066.92627	793.20374	342.34195	902.85406	1128.48486	-137.70839	911.44470	1079.50732	-145.25142	898.53644	1029.75891	-54.08392	1029.14258	1059.49023	-107.32653	nan	nan	nan	1108.49768	1111.48157	-67.51591	1151.50439	1166.20178	-144.68280
7715	30.85600	859.12000	1421.07190	80.81400	939.26648	1357.05261	261.70203	892.23517	1347.41992	-110.40100	993.16046	1297.00464	64.17233	921.65173	1161.63379	338.94965	936.92474	1064.00085	354.27353	858.96246	1037.84534	294.78186	920.81653	932.46948	373.54715	1014.08459	866.51160	331.50751	951.72357	835.66846	353.39728	1067.06934	793.27454	342.27234	903.18115	1128.54150	-137.78566	911.82251	1079.66846	-145.37041	898.99951	1029.83704	-54.10882	1029.43860	1060.36572	-107.23962	1084.54822	1147.66089	-124.48859	1108.33362	1112.85388	-67.31333	1153.14087	1168.48669	-143.11606
7716	30.86000	859.10431	1421.06531	80.74696	939.24066	1357.06299	261.64426	892.22412	1347.38647	-110.44131	993.17883	1297.02515	64.13383	921.60205	1161.71570	338.86545	936.97229	1064.02417	354.22626	859.01373	1037.83533	294.73697	920.85016	932.42432	373.50217	1014.19006	866.55713	331.46631	951.84119	835.69012	353.34164	1067.21887	793.34180	342.21469	903.51648	1128.59741	-137.86047	912.20288	1079.82605	-145.49297	899.44464	1029.87964	-54.15404	1029.72986	1061.23730	-107.16275	1083.61682	1148.89551	-124.89182	1108.16650	1114.22375	-67.10395	1153.55994	1170.25732	-142.15822
7717	30.86400	859.08722	1421.05237	80.69598	939.20911	1357.07153	261.58981	892.21100	1347.35217	-110.48380	993.19598	1297.03943	64.09615	921.36481	1161.97278	338.67007	937.01306	1064.04456	354.18436	859.06244	1037.82861	294.69470	920.95544	932.45435	373.45264	1014.29559	866.60022	331.41901	951.96057	835.71350	353.28366	1067.36792	793.41504	342.15616	903.85211	1128.65503	-137.94579	912.56653	1079.97803	-145.63542	899.85529	1029.90796	-54.23189	1030.02393	1062.10999	-107.08050	1083.03369	1150.20557	-124.91855	1107.98840	1115.57935	-66.89460	1153.38965	1172.00281	-141.74660
